<svg xmlns="http://www.w3.org/2000/svg" viewBox="0 0 185.51 214.5"><defs><style>.cls-1{fill:#282e4b;}.cls-2{fill:#53586f;}.cls-3{fill:#fff;}.cls-4{fill:#fbfcfc;}</style></defs><title>Asset 1</title><g id="Layer_2" data-name="Layer 2"><g id="Layer_1-2" data-name="Layer 1"><path class="cls-1" d="M2.68,0H182.84a2.69,2.69,0,0,1,2.66,3l-16.18,186.3a4.79,4.79,0,0,1-3.44,4.2L92.27,214.5,20,193.85a6.85,6.85,0,0,1-4.91-6L0,2.94A2.7,2.7,0,0,1,2.68,0Z"/><path class="cls-2" d="M98,21.75V195a3.48,3.48,0,0,0,4.42,3.35l53.19-14.86A7.37,7.37,0,0,0,161,177L174.51,19.82a3.06,3.06,0,0,0-3-3.32l-67.82-.36A5.61,5.61,0,0,0,98,21.75Z"/><path class="cls-3" d="M71.71,136.39c-.34,5.89,2.13,7.39,6.63,6.72a28.74,28.74,0,0,1,6.49,0c2.4.19,3.15-.7,3.13-3.1q-.13-21.74,0-43.48c0-2.35-.74-3.26-3.17-3.19-5,.14-10,0-15,0-9.67,0-9.26,0-10.33,9.52-.45,4,1,4,3.77,4,1.44,0,3.83-1,3.9,1.69.15,5.14.77,10.38-.74,15.4A5.77,5.77,0,0,1,60,128.41c-3.18-.23-4.78-2.14-5.42-5A24.19,24.19,0,0,1,54,118q-.07-22.48,0-45a23.12,23.12,0,0,1,.68-5.93,4.94,4.94,0,0,1,5.21-3.82,4.68,4.68,0,0,1,4.83,4.17c.25,1.3.31,2.64.48,4C65.61,74.68,63.75,79,66,81c2.4,2.21,7.06.94,10.51,1,12.37.1,12-.2,11-12.66C86.7,58.63,80.13,50.73,69.91,48.4a47.23,47.23,0,0,0-11.4-1.18c-17.2.37-27,9.53-27.8,26.73-.7,15.14-.53,30.31.05,45.46.4,10.16,5.82,20.26,16,23.64C55.34,145.93,66.42,144.56,71.71,136.39Z"/><path class="cls-4" d="M129.29,144.58c-17.13-1.18-26.13-11-25.7-27.92.06-2.36,1.27-2.83,3-3,4.62-.59,9.27-1,13.87-1.73,2.52-.42,2.9.75,2.82,2.69a22.26,22.26,0,0,0,1.3,8.34c.86,2.5,2.39,4.58,5.39,4.3,3.37-.3,3.34-3.29,3.53-5.57.43-5.31-1.69-9.83-5.47-13.42-4.59-4.35-9.5-8.36-14.11-12.68-8.86-8.3-12.26-18.42-9.4-30.34,3-12.36,16.17-19.84,30.83-17.59S154,60.6,154.43,72.3c.07,2.25-.88,2.82-2.9,3-4.65.32-9.31.66-13.91,1.35-2.7.41-3.2-.67-3.11-2.93a26.69,26.69,0,0,0-.2-5c-.33-2.19-.94-4.44-3.8-4.41s-3.65,2.2-4,4.34c-1,5.54,1,10.19,5,14s8.22,7.3,12.27,11c7.54,6.88,12.51,15,12.66,25.6C156.59,135.18,145.42,145.69,129.29,144.58Z"/></g></g></svg>